<svg width="25" height="19" viewBox="0 0 25 19" fill="none" xmlns="http://www.w3.org/2000/svg">
<path d="M24.4849 3.49871C24.1967 2.42773 23.3523 1.58355 22.2815 1.29516C20.3252 0.759766 12.4998 0.759766 12.4998 0.759766C12.4998 0.759766 4.67451 0.759766 2.71815 1.27475C1.66797 1.56295 0.80299 2.42793 0.514791 3.49871C0 5.45487 0 9.51179 0 9.51179C0 9.51179 0 13.5891 0.514791 15.5249C0.803181 16.5956 1.64737 17.44 2.71834 17.7284C4.69511 18.2638 12.4999 18.2638 12.4999 18.2638C12.4999 18.2638 20.3252 18.2638 22.2815 17.7488C23.3525 17.4606 24.1967 16.6162 24.4851 15.5455C24.9999 13.5891 24.9999 9.53239 24.9999 9.53239C24.9999 9.53239 25.0205 5.45487 24.4849 3.49871Z" fill="#FF0000"/>
</svg>
